FFmpeg version SVN-r25716, Copyright (c) 2000-2010 the FFmpeg developers  built on Nov 10 2010 12:23:18 with gcc 4.1.2 20080704 (Red Hat 4.1.2-48)  configuration: --enable-libmp3lame --enable-shared --disable-mmx --arch=x86_64  libavutil     50.33. 0 / 50.33. 0  libavcore      0.12. 1 /  0.12. 1  libavcodec    52.94. 4 / 52.94. 4  libavformat   52.84. 0 / 52.84. 0  libavdevice   52. 2. 2 / 52. 2. 2  libavfilter    1.59. 0 /  1.59. 0  libswscale     0.12. 0 /  0.12. 0[mov,mp4,m4a,3gp,3g2,mj2 @ 0x1121c4c0] multiple edit list entries, a/v desync might occur, patch welcomeSeems stream 0 codec frame rate differs from container frame rate: 600.00 (600/1) -> 15.00 (15/1)Input #0, mov,mp4,m4a,3gp,3g2,mj2, from '/RAID10/data/converted_video_files/11837.mov':  Duration: 00:00:06.73, start: 0.076667, bitrate: 7149 kb/s    Stream #0.0(eng): Video: svq3, yuvj420p, 560x330, 7145 kb/s, 15 fps, 15 tbr, 600 tbn, 600 tbc[buffer @ 0x11222820] w:560 h:330 pixfmt:yuvj420p[ffsink @ 0x11224b70] auto-inserting filter 'auto-inserted scaler 0' between the filter 'src' and the filter 'out'[scale @ 0x11224e90] w:560 h:330 fmt:yuvj420p -> w:560 h:330 fmt:yuv420p flags:0x4Output #0, flv, to '/RAID10/data/converted_video_files/11837.flv':  Metadata:    encoder         : Lavf52.84.0    Stream #0.0(eng): Video: flv, yuv420p, 560x330, q=2-31, 600 kb/s, 1k tbn, 24 tbcStream mapping:  Stream #0.0 -> #0.0Press [q] to stop encodingframe=   40 fps=  0 q=7.9 size=     275kB time=2.62 bitrate= 859.0kbits/s    frame=   88 fps= 84 q=8.6 size=     477kB time=5.83 bitrate= 669.1kbits/s    frame=  101 fps= 85 q=8.1 Lsize=     530kB time=6.71 bitrate= 647.6kbits/s    video:528kB audio:0kB global headers:0kB muxing overhead 0.337418%